<svg id="Capa_1" data-name="Capa 1" xmlns="http://www.w3.org/2000/svg" xmlns:xlink="http://www.w3.org/1999/xlink" viewBox="0 0 170.14 198.85"><defs><style>.cls-1{fill:url(#Degradado_sin_nombre_201);}.cls-2{fill:url(#Degradado_sin_nombre_200);}.cls-3{fill:url(#Degradado_sin_nombre_200-2);}.cls-4{fill:url(#Degradado_sin_nombre_201-2);}.cls-5{fill:url(#Degradado_sin_nombre_177);}</style><linearGradient id="Degradado_sin_nombre_201" x1="38.08" y1="116.54" x2="159.79" y2="116.54" gradientUnits="userSpaceOnUse"><stop offset="0" stop-color="#ea8223"/><stop offset="0.95" stop-color="#ea8223"/><stop offset="1" stop-color="#ea8223"/></linearGradient><linearGradient id="Degradado_sin_nombre_200" x1="14.93" y1="100" x2="109.47" y2="100" gradientUnits="userSpaceOnUse"><stop offset="0.45" stop-color="#ea8223"/><stop offset="0.56" stop-color="#e78123"/><stop offset="0.64" stop-color="#df7c21"/><stop offset="0.71" stop-color="#d0731f"/><stop offset="0.77" stop-color="#ba681c"/><stop offset="0.82" stop-color="#9f5818"/><stop offset="0.87" stop-color="#7d4613"/><stop offset="0.92" stop-color="#552f0d"/><stop offset="0.96" stop-color="#281606"/><stop offset="1"/></linearGradient><linearGradient id="Degradado_sin_nombre_200-2" x1="92.96" y1="47.74" x2="143.28" y2="47.74" xlink:href="#Degradado_sin_nombre_200"/><linearGradient id="Degradado_sin_nombre_201-2" x1="61.43" y1="171.65" x2="158.44" y2="171.65" xlink:href="#Degradado_sin_nombre_201"/><linearGradient id="Degradado_sin_nombre_177" x1="141.51" y1="180.59" x2="142.45" y2="180.59" gradientUnits="userSpaceOnUse"><stop offset="0" stop-color="#f9933a"/><stop offset="0.43" stop-color="#f79036"/><stop offset="0.81" stop-color="#f0882c"/><stop offset="1" stop-color="#ea8223"/></linearGradient></defs><path class="cls-1" d="M159.79,159.3c-7.63.8-13.47-1.86-18.88-5.64-6.58-4.59-13-9.4-20.07-13.26-12.39-6.79-25.33-11.32-39.78-10.92C65,129.93,59.64,134,55.92,150c-2.91-3.91-2-9.13-5.84-13.68V159c-6.19-7.93-9.38-16.81-11-26.24a72.77,72.77,0,0,1-.31-21.56C41.33,89.62,62.07,76,81.1,74.13c11.12-1.11,22.44-.8,32.62,5.72A50.52,50.52,0,0,1,135,107.49c3,9.09,5,18.51,8.71,27.37S153.14,151.49,159.79,159.3ZM127.4,122.19c-3.73-4.48-7.22-8.41-11.82-11.69C117.79,120.86,121.07,124.25,127.4,122.19Z" transform="translate(-14.93 -0.58)"/><path class="cls-2" d="M15.61,117.92A85.06,85.06,0,0,0,21.38,139,115.63,115.63,0,0,0,33.93,161.8c8.81,12.49,19.84,23.26,31.76,32.76a21.66,21.66,0,0,0,6,4.86l1-.8L67.3,193c-1.42-1.74-2.79-3.52-4.26-5.21-12.42-14.4-23.6-29.58-30.11-47.73-6.16-17.18-6.82-33.9,4.54-49.38C44.8,80.71,54.86,73.89,66,69.17,95.42,56.71,102.2,29.79,109.35,3a1.65,1.65,0,0,0-.63-2.1c-1.1-.65-1.72-.06-2.39.77-2,2.49-4.12,4.93-6.19,7.39C83.85,28.33,64.23,43.93,44,58.75A90.34,90.34,0,0,0,24.51,77.48,46.41,46.41,0,0,0,15,103.69,78.81,78.81,0,0,0,15.61,117.92Z" transform="translate(-14.93 -0.58)"/><path class="cls-3" d="M93,67.19c6.53-5.72,12.13-10.67,17.78-15.57q14.2-12.28,28.48-24.49c1-.85,2.06-2.79,3.52-1.61s-.17,2.67-.64,3.88a95.12,95.12,0,0,1-26.9,38.08c-2.67,2.32-5.48,3.54-9.21,2.44S98.24,68.26,93,67.19Z" transform="translate(-14.93 -0.58)"/><path d="M164,161.85c6.76,2.63,13,5,19.24,7.49,2.39,1,2.47,2.24.09,3.54C173.54,178.23,165.56,176.1,164,161.85Z" transform="translate(-14.93 -0.58)"/><path class="cls-4" d="M158.29,178.8h-6.12c-2.14-1.47-4.69-.77-7-1.27-14.24-3.05-25.65-10.92-36.46-20.27-8.25-7.14-16.74-13.85-29.21-12.46-14.86,1.65-22.91,16.3-14.86,28.81,7.56,11.74,18.75,19.11,31,25.07a6.5,6.5,0,0,1,.52-.53c-.45-1.37-1.81-1.74-2.8-2.5-8.45-6.5-16.52-13.4-22.56-22.3-5.57-8.2-2.16-17,7.41-19.29a27.59,27.59,0,0,1,7.66-.42C94,154,99.79,159,105.55,163.9c10.48,8.88,22,15.33,36,16.83.32-.5.63-.5.94,0h8.72l7.27-1Z" transform="translate(-14.93 -0.58)"/><path class="cls-5" d="M141.51,180.73c.32-.5.63-.5.94,0l-.47.09Z" transform="translate(-14.93 -0.58)"/><path d="M127.4,122.19c-6.33,2.06-9.61-1.33-11.82-11.69C120.18,113.78,123.67,117.71,127.4,122.19Z" transform="translate(-14.93 -0.58)"/></svg>