<svg id="Capa_1" data-name="Capa 1" xmlns="http://www.w3.org/2000/svg" xmlns:xlink="http://www.w3.org/1999/xlink" viewBox="0 0 792.14 198.85"><defs><style>.cls-1{fill:url(#Degradado_sin_nombre_201);}.cls-2{fill:url(#Degradado_sin_nombre_200);}.cls-3{fill:url(#Degradado_sin_nombre_200-2);}.cls-4{fill:url(#Degradado_sin_nombre_201-2);}.cls-5{fill:url(#Degradado_sin_nombre_177);}.cls-6{font-size:77.95px;fill:#ea8223;stroke:#1d1d1b;stroke-miterlimit:10;stroke-width:2px;font-family:KineticBold, Kinetic;}</style><linearGradient id="Degradado_sin_nombre_201" x1="33.01" y1="117.12" x2="154.72" y2="117.12" gradientUnits="userSpaceOnUse"><stop offset="0" stop-color="#ea8223"/><stop offset="0.95" stop-color="#ea8223"/><stop offset="1" stop-color="#ea8223"/></linearGradient><linearGradient id="Degradado_sin_nombre_200" x1="9.86" y1="100.58" x2="104.4" y2="100.58" gradientUnits="userSpaceOnUse"><stop offset="0.45" stop-color="#ea8223"/><stop offset="0.56" stop-color="#e78123"/><stop offset="0.64" stop-color="#df7c21"/><stop offset="0.71" stop-color="#d0731f"/><stop offset="0.77" stop-color="#ba681c"/><stop offset="0.82" stop-color="#9f5818"/><stop offset="0.87" stop-color="#7d4613"/><stop offset="0.92" stop-color="#552f0d"/><stop offset="0.96" stop-color="#281606"/><stop offset="1"/></linearGradient><linearGradient id="Degradado_sin_nombre_200-2" x1="87.89" y1="48.32" x2="138.21" y2="48.32" xlink:href="#Degradado_sin_nombre_200"/><linearGradient id="Degradado_sin_nombre_201-2" x1="56.36" y1="172.23" x2="153.37" y2="172.23" xlink:href="#Degradado_sin_nombre_201"/><linearGradient id="Degradado_sin_nombre_177" x1="136.44" y1="181.17" x2="137.38" y2="181.17" gradientUnits="userSpaceOnUse"><stop offset="0" stop-color="#f9933a"/><stop offset="0.43" stop-color="#f79036"/><stop offset="0.81" stop-color="#f0882c"/><stop offset="1" stop-color="#ea8223"/></linearGradient></defs><path class="cls-1" d="M154.72,159.88c-7.63.8-13.48-1.86-18.88-5.64-6.58-4.59-13-9.4-20.07-13.27-12.39-6.79-25.34-11.32-39.78-10.91-16,.45-21.43,4.55-25.14,20.49-2.91-3.92-2-9.13-5.84-13.69v22.69c-6.19-7.93-9.38-16.81-11-26.24a72.7,72.7,0,0,1-.31-21.55C36.26,90.2,57,76.59,76,74.7c11.13-1.1,22.45-.79,32.63,5.73a50.48,50.48,0,0,1,21.26,27.64c3,9.09,5,18.51,8.71,27.37S148.07,152.07,154.72,159.88Zm-32.39-37.11c-3.73-4.49-7.22-8.42-11.82-11.69C112.72,121.44,116,124.83,122.33,122.77Z" transform="translate(-9.86 -1.15)"/><path class="cls-2" d="M10.54,118.5a85.06,85.06,0,0,0,5.77,21.1,115.84,115.84,0,0,0,12.55,22.77c8.81,12.5,19.84,23.27,31.76,32.76a21.7,21.7,0,0,0,6,4.87l1-.8-5.43-5.63c-1.42-1.73-2.79-3.51-4.26-5.21C45.54,174,34.37,158.79,27.86,140.64,21.7,123.45,21,106.73,32.4,91.26c7.32-10,17.39-16.79,28.54-21.52C90.35,57.29,97.13,30.37,104.28,3.53a1.65,1.65,0,0,0-.63-2.1c-1.1-.65-1.72-.06-2.39.76-2,2.49-4.12,4.94-6.19,7.4C78.78,28.91,59.16,44.51,38.91,59.33A90.06,90.06,0,0,0,19.44,78.05,46.47,46.47,0,0,0,10,104.26,78.92,78.92,0,0,0,10.54,118.5Z" transform="translate(-9.86 -1.15)"/><path class="cls-3" d="M87.89,67.76C94.42,62,100,57.09,105.67,52.2q14.2-12.3,28.48-24.5c1-.84,2.06-2.78,3.52-1.61S137.5,28.76,137,30a95.36,95.36,0,0,1-26.9,38.08c-2.67,2.31-5.48,3.54-9.21,2.44S93.17,68.84,87.89,67.76Z" transform="translate(-9.86 -1.15)"/><path d="M158.92,162.43c6.77,2.62,13,5,19.25,7.49,2.39,1,2.46,2.24.09,3.53C168.47,178.81,160.49,176.68,158.92,162.43Z" transform="translate(-9.86 -1.15)"/><path class="cls-4" d="M153.22,179.38H147.1c-2.15-1.47-4.69-.77-7-1.27-14.24-3.06-25.65-10.92-36.47-20.28C95.36,150.7,86.87,144,74.4,145.37,59.53,147,51.49,161.68,59.54,174.19c7.56,11.73,18.75,19.11,31,25.07a5.21,5.21,0,0,1,.52-.53c-.45-1.37-1.81-1.74-2.8-2.5-8.45-6.5-16.52-13.41-22.56-22.3-5.57-8.21-2.16-17.05,7.4-19.3a28.47,28.47,0,0,1,7.67-.42c8.1.39,13.92,5.39,19.67,10.27,10.49,8.88,22.06,15.33,36,16.82.32-.49.63-.49.94,0h8.72l7.27-1Z" transform="translate(-9.86 -1.15)"/><path class="cls-5" d="M136.44,181.3c.32-.49.63-.49.94,0l-.47.1Z" transform="translate(-9.86 -1.15)"/><path d="M122.33,122.77c-6.33,2.06-9.61-1.33-11.82-11.69C115.11,114.35,118.6,118.28,122.33,122.77Z" transform="translate(-9.86 -1.15)"/><text class="cls-6" transform="translate(179.14 130.43) scale(1.03 1)">KITSUNE-GAMES</text></svg>